<svg width="46" height="74" viewBox="0 0 46 74" fill="none" xmlns="http://www.w3.org/2000/svg">
<path d="M33.0533 0.0505539C32.3337 -0.15117 31.5868 0.268691 31.385 0.988339L28.0977 12.7157C27.896 13.4353 28.3159 14.1823 29.0355 14.384C29.7552 14.5857 30.5021 14.1658 30.7038 13.4462L33.6259 3.02189L44.0502 5.94392C44.7698 6.14564 45.5167 5.72578 45.7185 5.00613C45.9202 4.28648 45.5003 3.53956 44.7807 3.33784L33.0533 0.0505539ZM0.169122 71.735L0.338167 73.0776C10.0095 71.86 24.2589 64.35 33.1721 51.9061C42.1749 39.3373 45.7119 21.7609 33.8677 0.690479L32.6881 1.35359L31.5084 2.01671C42.8236 22.1461 39.3793 38.5923 30.9718 50.3301C22.4748 62.1929 8.88505 69.2736 7.69482e-05 70.3923L0.169122 71.735Z" fill="url(#paint0_linear_410_200)"/>
<defs>
<linearGradient id="paint0_linear_410_200" x1="0.113955" y1="71.659" x2="40.5606" y2="35.2781" gradientUnits="userSpaceOnUse">
<stop stop-color="#FFC4D4"/>
<stop offset="1" stop-color="white"/>
</linearGradient>
</defs>
</svg>
