<svg width="246" height="250" viewBox="0 0 246 250" fill="none" xmlns="http://www.w3.org/2000/svg">
<path d="M241.668 213.434C240.57 213.931 239.351 214.097 238.159 213.913C236.968 213.73 235.856 213.204 234.958 212.4L200.509 182.265L101.517 188.268L44.7592 191.684C41.4962 191.882 38.2884 190.775 35.8408 188.608C33.3932 186.441 31.9061 183.391 31.7064 180.129L25.4862 77.026C25.4291 76.1153 25.484 75.2011 25.6495 74.3038L83.3869 61.1557L219.618 52.9891L223.783 52.7442C225.402 52.6355 227.027 52.8496 228.563 53.374C230.098 53.8985 231.515 54.7229 232.729 55.7992C233.943 56.8756 234.932 58.1826 235.637 59.6442C236.342 61.1058 236.75 62.6929 236.836 64.3134L245.452 207.309C245.532 208.596 245.211 209.876 244.534 210.973C243.856 212.07 242.855 212.93 241.668 213.434Z" fill="white"/>
<path d="M231.065 158.759L101.517 188.268L44.7592 191.684C41.4962 191.881 38.2884 190.775 35.8408 188.608C33.3932 186.441 31.9061 183.391 31.7064 180.128L25.4862 77.0259C25.4291 76.1153 25.484 75.2011 25.6495 74.3038L83.3869 61.1556L219.618 52.9891L240.348 144.073C241.052 147.251 240.471 150.578 238.732 153.329C236.993 156.08 234.237 158.032 231.065 158.759Z" fill="#F4C9D5"/>
<path d="M206.77 32.5864L229.677 133.307C230.401 136.494 229.83 139.839 228.089 142.605C226.349 145.372 223.581 147.334 220.394 148.061L68.238 182.66L43.6295 221.247C42.958 222.305 41.988 223.141 40.8421 223.648C39.6962 224.155 38.4256 224.312 37.1908 224.098C35.956 223.884 34.8123 223.309 33.904 222.445C32.9957 221.582 32.3636 220.469 32.0874 219.246L0.305979 79.5576C-0.417955 76.3666 0.154556 73.0188 1.89768 70.2497C3.64081 67.4806 6.41197 65.5168 9.60224 64.7898L191.988 23.2765C195.183 22.5527 198.534 23.1267 201.306 24.8723C204.077 26.618 206.043 29.3925 206.77 32.5864Z" fill="white"/>
<path d="M164.236 94.2438C166.958 128.693 120.939 157.698 119.524 158.596C119.524 158.596 68.1292 136.819 65.407 101.879C63.8146 81.327 73.4102 70.7105 85.8234 68.1653C94.5071 66.3959 104.552 68.6144 113.045 74.1813C118.933 68.7577 126.354 65.2873 134.292 64.2453C148.665 62.612 162.507 71.1325 164.236 94.2438Z" fill="#ED5D79"/>
<path d="M164.235 94.2438C166.957 128.693 120.939 157.698 119.523 158.596C120.748 157.235 153.728 122.704 153.687 96.8026C153.687 80.0884 149.495 71.2822 134.169 64.2453C148.664 62.612 162.507 71.1325 164.235 94.2438Z" fill="#B70F47"/>
<path d="M113.004 74.2085L114.215 89.97C114.215 89.97 101.625 74.0588 85.7822 68.1925C94.466 66.4231 104.511 68.6417 113.004 74.2085Z" fill="#B70F47"/>
<path d="M82.8152 90.8819C81.6855 95.7273 78.1875 99.0484 74.9617 98.2998C71.7359 97.5512 70.0481 93.0324 71.1642 88.2005C72.2803 83.3686 75.792 80.034 79.0041 80.7826C82.2163 81.5312 83.9312 86.05 82.8152 90.8819Z" fill="#FCA9C1"/>
<path d="M202.487 234.377C194.553 249.705 167.277 249.982 166.422 250C166.422 250 150.182 227.323 158.246 211.756C162.984 202.615 169.859 200.676 175.824 202.763C180.302 204.577 183.898 208.045 185.857 212.439C189.798 211.672 193.88 212.137 197.544 213.769C204.14 216.853 207.727 224.092 202.487 234.377Z" fill="#CD5C7A"/>
<path d="M90.0156 7.72494C94.4757 18.9829 82.3559 33.5473 81.9681 34C81.9681 34 62.7508 32.1893 58.2132 20.7542C55.5371 14.0428 57.5926 9.47662 61.4128 7.31163C64.3831 5.7788 67.8216 5.46859 71.0117 6.44564C72.3808 4.00873 74.4607 2.0627 76.965 0.875718C81.5609 -1.21054 87.0099 0.186859 90.0156 7.72494Z" fill="#CD5C7A"/>
</svg>
