<svg width="652" height="702" viewBox="0 0 652 702" fill="none" xmlns="http://www.w3.org/2000/svg">
<path d="M652 382L41 292.313L353.666 74.1335C363.096 67.5447 374.678 64.8074 386.053 66.4794C397.427 68.1514 407.737 74.107 414.882 83.1322L492.711 181.18L575.031 285.077L652 382Z" fill="#FFE9EF"/>
<path opacity="0.19" d="M560.782 367.966C518.015 461.086 401.159 526.494 396.657 529C396.657 529 216.889 442.312 205.635 316.133C205.335 313.215 205.147 310.261 205.072 307.269C203.121 230.417 241.011 192.683 287.603 185.615C320.428 180.641 357.53 190.888 388.216 213.251C411.229 194.14 439.615 182.604 469.472 180.229C477.225 179.726 485.01 180.052 492.693 181.202L575.225 284.831C575.6 289.019 575.825 293.32 575.975 297.808C576.41 322.049 571.21 346.062 560.782 367.966Z" fill="#FF8DAC"/>
<path d="M503.561 407.101C454.936 490.396 353.947 547.405 349.87 550C349.87 550 208.784 481.258 169.211 377.017C163.031 361.045 159.603 344.131 159.075 327.002C157.092 249.686 194.907 211.818 241.362 204.673C274.09 199.671 311.082 209.937 341.678 232.463C364.614 213.249 392.9 201.638 422.657 199.22C476.855 195.873 526.751 230.507 528.958 317.488C529.743 349.415 519.532 379.687 503.561 407.101Z" fill="#ED5D79"/>
<path d="M528.954 317.476C532.281 447.128 355.496 546.916 350 550C354.823 545.374 484.319 422.115 489.141 324.998C492.244 262.41 478.487 228.558 422.711 199.22C476.879 195.872 526.749 230.514 528.954 317.476Z" fill="#B70F47"/>
<path d="M341.486 232.912L343 292C343 292 298.614 230.177 240 205.222C273.072 200.276 310.533 210.505 341.486 232.912Z" fill="#B70F47"/>
<path d="M228.273 287.622C223.68 303.873 211.323 314.572 200.678 311.462C190.034 308.353 185.112 292.694 189.742 276.405C194.372 260.116 206.693 249.455 217.337 252.528C227.982 255.6 232.867 271.333 228.273 287.622Z" fill="#FCA9C1"/>
<path d="M504 407.087C455.281 490.39 354.095 547.405 350.01 550C350.01 550 208.65 481.251 169 377L342.215 466.659L504 407.087Z" fill="#B70F47"/>
<path d="M649.703 379L609.809 650.686C608.686 658.489 606.029 665.994 601.99 672.769C597.951 679.544 592.611 685.455 586.275 690.163C579.939 694.87 572.734 698.282 565.073 700.201C557.412 702.12 549.446 702.508 541.634 701.344L112.731 638.61C80.2921 633.862 75.6472 589.036 106.476 577.783L287.551 511.534L331.528 495.421L361.495 484.392L381.798 476.915L649.703 379Z" fill="white"/>
<path opacity="0.19" d="M599 677.619C596.203 682.5 586.203 691 578.703 695L368.711 538.188L342.811 527.527L339.052 516.265L323 504.251L338.262 513.937L333.3 498.583L363.373 487.508L383.747 480C384.853 499.062 380.401 518.036 370.929 534.622L385.214 543.669L599 677.619Z" fill="#E90080"/>
<path d="M513.125 699.709L54.1108 632.569C45.8808 631.364 37.9694 628.553 30.8289 624.294C23.6884 620.036 17.4589 614.414 12.4966 607.751C7.5343 601.088 3.93653 593.514 1.90902 585.462C-0.118497 577.41 -0.535973 569.038 0.680442 560.825L40.1252 292L293.441 481.146L357.183 528.639L530.485 658.13C534.692 661.199 537.742 665.591 539.144 670.601C540.546 675.61 540.219 680.944 538.214 685.745C536.21 690.546 532.645 694.534 528.094 697.067C523.543 699.6 518.27 700.531 513.125 699.709Z" fill="white"/>
<path opacity="0.19" d="M357 529.576C343.05 544.525 320.899 552 320.899 552C320.899 552 284.204 525.502 288.323 497.211C288.912 491.728 290.893 486.489 294.074 482L357 529.576Z" fill="#FF0C91"/>
<path d="M367.94 492.187C367.163 521.007 326.647 541 326.647 541C319.233 536.567 312.326 531.303 306.056 525.307C296.63 516.254 287.573 503.881 288.016 489.961C288.792 461.103 313.117 458.538 328.68 471.363C341.619 461.669 359.955 462.423 366.017 478.418C367.56 482.828 368.214 487.512 367.94 492.187Z" fill="#ED5D79"/>
<path d="M86.2519 197.426L100.703 190.146L84.6787 191.985L86.9104 185.268L82.5934 190.822L75.4958 176L77.2885 192.398L70.7397 190.109L76.1544 194.574L61.7031 201.854L77.6909 200.015L75.4592 206.732L79.7763 201.178L86.9104 216L85.0812 199.565L91.6665 201.854L86.2519 197.426Z" fill="white"/>
<path d="M307.251 21.4259L321.703 14.1463L305.678 15.9849L307.91 9.26829L303.593 14.8217L296.495 0L298.288 16.3977L291.739 14.1087L297.154 18.574L282.703 25.8536L298.69 24.015L296.459 30.7317L300.776 25.1782L307.91 40L306.081 23.5647L312.666 25.8536L307.251 21.4259Z" fill="white"/>
<path d="M564.548 121.446L579 114.122L563.012 116L565.243 109.239L560.926 114.836L553.792 100L555.585 116.413L549.036 114.122L554.451 118.554L540 125.878L556.024 124L553.792 130.76L558.109 125.164L565.207 140L563.414 123.587L569.963 125.878L564.548 121.446Z" fill="white"/>
<path d="M620.496 262.925L640.189 278L626.777 257.161L637.344 255.757L626.925 253.504L642 233.81L621.124 247.222L619.72 236.655L617.466 247.075L597.773 232L611.222 252.839L600.655 254.243L611.074 256.496L596 276.19L616.838 262.778L618.242 273.345L620.496 262.925Z" fill="white"/>
<path d="M367.959 492.666C367.188 521.203 326.951 541 326.951 541C319.588 536.61 312.729 531.399 306.502 525.461C305.682 521.737 305.871 517.855 307.047 514.231C308.224 510.607 310.344 507.375 313.183 504.88C326.474 494.309 334.771 507.084 343.949 496.438C353.127 485.793 332.935 476.641 339.8 472.421C345.931 468.685 358.157 464.95 365.903 479.032C367.485 483.389 368.185 488.026 367.959 492.666Z" fill="#B70F47"/>
</svg>
