<svg width="26" height="60" viewBox="0 0 26 60" fill="none" xmlns="http://www.w3.org/2000/svg">
<path d="M12.0211 58.6947C12.5263 59.1999 13.3453 59.1999 13.8505 58.6947L22.0828 50.4624C22.588 49.9572 22.588 49.1382 22.0828 48.633C21.5776 48.1278 20.7586 48.1278 20.2534 48.633L12.9358 55.9506L5.61818 48.633C5.113 48.1278 4.29395 48.1278 3.78878 48.633C3.2836 49.1382 3.2836 49.9572 3.78878 50.4624L12.0211 58.6947ZM12.9358 0L11.6422 -5.65443e-08L11.6422 57.78L12.9358 57.78L14.2294 57.78L14.2294 5.65443e-08L12.9358 0Z" fill="#D23C73"/>
<path d="M18.7568 18.9724C21.7628 18.9724 24.1464 21.3457 24.1465 24.4851C24.1465 26.4081 23.3091 28.289 21.4951 30.5466C19.6612 32.829 17.006 35.2869 13.6416 38.3904L13.6396 38.3923L12.9355 39.0437L12.2324 38.3923L12.2295 38.3904L9.84082 36.1765C7.58877 34.0692 5.75143 32.2584 4.37598 30.5466C2.56211 28.2891 1.72461 26.408 1.72461 24.4851C1.7247 21.3459 4.10852 18.9726 7.11426 18.9724C8.83261 18.9724 10.5189 19.7957 11.6172 21.0974L12.9355 22.6599L14.2539 21.0974C15.3521 19.7957 17.0385 18.9724 18.7568 18.9724Z" stroke="#D23C73" stroke-width="3.44955"/>
</svg>
