<svg width="41" height="66" viewBox="0 0 41 66" fill="none" xmlns="http://www.w3.org/2000/svg">
<path d="M11.3682 0.0451259C12.0116 -0.13522 12.6793 0.240145 12.8597 0.883526L15.7986 11.368C15.9789 12.0114 15.6036 12.6792 14.9602 12.8595C14.3168 13.0399 13.649 12.6645 13.4687 12.0211L10.8563 2.70156L1.53678 5.31392C0.893404 5.49426 0.225639 5.1189 0.0452961 4.47552C-0.13505 3.83214 0.240313 3.16437 0.883696 2.98403L11.3682 0.0451259ZM40.7674 64.1325L40.6162 65.3329C31.9699 64.2443 19.2306 57.5302 11.262 46.4051C3.21332 35.1683 0.0511455 19.4547 10.6401 0.617232L11.6947 1.21007L12.7494 1.80291C2.63336 19.799 5.71265 34.5023 13.2291 44.9961C20.8256 55.6017 32.9751 61.932 40.9185 62.9321L40.7674 64.1325Z" fill="url(#paint0_linear_410_319)"/>
<defs>
<linearGradient id="paint0_linear_410_319" x1="40.8167" y1="64.0646" x2="4.65657" y2="31.5393" gradientUnits="userSpaceOnUse">
<stop stop-color="#840F3C"/>
<stop offset="1" stop-color="#D23C73"/>
</linearGradient>
</defs>
</svg>
