<svg width="742" height="339" viewBox="0 0 742 339" fill="none" xmlns="http://www.w3.org/2000/svg">
<path d="M662.026 12.6682C644.254 12.6682 627.839 18.4591 614.563 28.2414C594.978 10.6898 569.087 0 540.684 0C485.279 0 439.393 40.6395 431.343 93.6679C418.842 95.527 407.033 99.487 396.266 105.155C377.15 72.15 341.421 49.9225 300.459 49.9225C272.991 49.9225 247.881 59.934 228.542 76.4712C204.908 59.7707 176.067 49.9225 144.9 49.9225C64.8753 49.9225 0 114.633 0 194.461C0 274.289 64.8722 339 144.9 339C198.64 339 245.514 309.791 270.529 266.445C280.053 269.111 290.083 270.568 300.459 270.568C319.072 270.568 336.598 265.961 351.989 257.859C371.105 290.864 406.838 313.092 447.796 313.092C503.202 313.092 549.087 272.452 557.137 219.424C590.218 214.503 618.514 194.973 635.212 167.617C643.596 170.594 652.616 172.227 662.023 172.227C706.192 172.227 742 136.509 742 92.4494C742 48.39 706.195 12.6682 662.026 12.6682Z" fill="white"/>
</svg>
