<svg width="1149" height="525" viewBox="0 0 1149 525" fill="none" xmlns="http://www.w3.org/2000/svg">
<path d="M1024.9 504.968C997.385 504.968 971.973 496.007 951.42 480.87C921.1 508.029 881.018 524.57 837.046 524.57C751.271 524.57 680.235 461.685 667.773 379.628C648.419 376.751 630.137 370.624 613.469 361.852C583.875 412.925 528.562 447.32 465.148 447.32C422.624 447.32 383.751 431.828 353.811 406.239C317.223 432.081 272.574 447.32 224.323 447.32C100.435 447.32 0 347.187 0 223.66C0 100.133 100.43 9.75718e-06 224.323 9.75718e-06C307.519 9.75718e-06 380.086 45.1975 418.813 112.272C433.556 108.147 449.084 105.892 465.148 105.892C493.963 105.892 521.095 113.021 544.923 125.558C574.517 74.4853 629.835 40.0903 693.244 40.0903C779.018 40.0903 850.054 102.976 862.517 185.032C913.731 192.647 957.537 222.868 983.388 265.198C996.367 260.592 1010.33 258.065 1024.89 258.065C1093.27 258.065 1148.71 313.336 1148.71 381.514C1148.71 449.692 1093.28 504.968 1024.9 504.968Z" fill="#D23C73"/>
</svg>
