<svg width="1920" height="574" viewBox="0 0 1920 574" fill="none" xmlns="http://www.w3.org/2000/svg">
<path d="M1196.84 491.224C1174.99 486.855 1153.39 489.936 1134.67 498.692C1114.9 472.31 1085.7 452.81 1050.78 445.828C982.667 432.207 916.271 470.865 893.344 534.048C877.519 533.259 862.028 535.222 847.399 539.541C832.008 494.284 793.545 458.188 743.188 448.118C709.42 441.366 676.09 447.495 648.251 463.062C623.3 436.73 590.264 417.539 551.947 409.877C453.567 390.205 357.911 453.773 338.296 551.866C318.681 649.959 382.533 745.423 480.917 765.096C546.983 778.307 611.786 753.938 653.19 706.824C664.243 712.441 676.216 716.697 688.972 719.248C711.854 723.824 734.532 722.471 755.445 716.299C770.835 761.555 809.302 797.652 859.655 807.721C927.769 821.341 994.165 782.683 1017.09 719.501C1058.97 721.586 1098.56 704.544 1125.81 675.034C1135.38 680.753 1146.07 684.977 1157.63 687.29C1211.93 698.148 1264.73 663.059 1275.56 608.919C1286.38 554.779 1251.14 502.082 1196.84 491.224Z" fill="#D23C73"/>
<path d="M414.218 671.088C400.761 653.331 382.548 641.312 362.725 635.45C365.425 602.596 356.496 568.635 334.989 540.255C293.035 484.893 217.701 469.803 158.644 501.895C147.321 490.81 134.424 482.008 120.61 475.54C139.099 431.458 134.243 378.934 103.227 338.005C82.4273 310.559 53.4145 293.046 22.2539 286.238C21.0376 249.984 9.03467 213.712 -14.5658 182.569C-75.1617 102.608 -188.916 86.7618 -268.643 147.181C-348.371 207.6 -363.878 321.398 -303.28 401.362C-262.587 455.06 -197.921 479.789 -135.687 471.978C-131.138 483.511 -124.999 494.636 -117.141 505.005C-103.048 523.602 -85.1756 537.627 -65.4288 546.875C-83.9177 590.956 -79.0602 643.483 -48.0458 684.409C-6.09186 739.77 69.2417 754.86 128.299 722.769C158.263 752.099 199.195 765.592 239.161 761.572C242.536 772.202 247.735 782.45 254.858 791.85C288.304 835.984 351.091 844.729 395.095 811.382C439.099 778.035 447.664 715.223 414.218 671.088Z" fill="#D23C73"/>
<path d="M1973.06 207.513C1949.52 216.389 1930.66 232.256 1917.96 251.839C1883.25 238.382 1843.62 237.16 1805.99 251.347C1732.6 279.022 1692.11 355.75 1707.92 429.985C1692.28 438.69 1678.62 449.832 1667.18 462.715C1625.38 428.562 1566.96 416.977 1512.7 437.437C1476.31 451.157 1448.04 476.955 1430.68 508.511C1391.04 498.203 1347.92 499.569 1306.63 515.137C1200.62 555.108 1146.99 673.193 1186.84 778.892C1226.7 884.59 1344.94 937.869 1450.95 897.896C1522.14 871.054 1569.65 808.967 1581.15 739.078C1595.09 737.851 1609.11 734.771 1622.85 729.588C1647.51 720.291 1668.43 705.437 1684.77 687.022C1726.57 721.175 1785 732.758 1839.26 712.3C1912.65 684.626 1953.15 607.897 1937.34 533.663C1978.7 510.623 2006.44 470.631 2014.9 426.069C2027.49 425.824 2040.25 423.481 2052.72 418.782C2111.23 396.72 2140.83 331.541 2118.83 273.203C2096.83 214.865 2031.57 185.451 1973.06 207.513Z" fill="#D23C73"/>
</svg>
