<svg width="310" height="128" viewBox="0 0 310 128" fill="none" xmlns="http://www.w3.org/2000/svg">
<path d="M28.0648 109.758C35.3134 110.857 42.3665 109.511 48.3859 106.344C55.2897 114.71 65.1895 120.669 76.7745 122.424C99.3732 125.85 120.6 112.118 127.16 90.9966C132.374 91.0116 137.435 90.1271 142.177 88.4818C147.935 103.119 161.134 114.39 177.842 116.922C189.045 118.62 199.906 116.091 208.816 110.545C217.423 118.814 228.578 124.612 241.291 126.539C273.931 131.486 304.391 109.115 309.323 76.5701C314.256 44.025 291.795 13.6329 259.153 8.68561C237.234 5.3634 216.31 14.3737 203.429 30.4991C199.709 28.8233 195.708 27.6092 191.476 26.9678C183.884 25.8171 176.451 26.6119 169.672 28.9635C163.915 14.3259 150.714 3.05499 134.008 0.522946C111.409 -2.90223 90.1825 10.8294 83.6224 31.9508C69.8252 31.9119 57.077 38.1248 48.5759 48.2451C45.3403 46.5131 41.7623 45.2898 37.9254 44.7082C19.9097 41.9777 3.09742 54.3261 0.374925 72.2886C-2.34757 90.2511 10.049 107.028 28.0648 109.758Z" fill="#EFEFEF"/>
</svg>
