<svg width="1349" height="616" viewBox="0 0 1349 616" fill="none" xmlns="http://www.w3.org/2000/svg">
<path d="M1202.8 592.893C1170.51 592.893 1140.69 582.372 1116.56 564.6C1080.98 596.488 1033.94 615.91 982.338 615.91C881.675 615.91 798.309 542.074 783.683 445.73C760.97 442.352 739.515 435.157 719.953 424.859C685.222 484.824 620.308 525.208 545.888 525.208C495.982 525.208 450.361 507.019 415.224 476.974C372.285 507.316 319.886 525.208 263.26 525.208C117.868 525.208 0 407.64 0 262.604C0 117.569 117.862 0.000109683 263.26 0.000109683C360.897 0.000109683 446.06 53.0675 491.509 131.821C508.812 126.977 527.035 124.33 545.888 124.33C579.703 124.33 611.545 132.7 639.509 147.42C674.24 87.4549 739.16 47.071 813.575 47.071C914.238 47.071 997.604 120.907 1012.23 217.251C1072.33 226.191 1123.74 261.674 1154.08 311.375C1169.31 305.966 1185.7 303 1202.79 303C1283.04 303 1348.1 367.895 1348.1 447.944C1348.1 527.993 1283.05 592.893 1202.8 592.893Z" fill="url(#paint0_radial_182_814)"/>
<defs>
<radialGradient id="paint0_radial_182_814" cx="0" cy="0" r="1" gradientUnits="userSpaceOnUse" gradientTransform="translate(764.703 525.961) rotate(-105.6) scale(406.08 888.825)">
<stop stop-color="white"/>
<stop offset="1" stop-color="#FFA2C4"/>
</radialGradient>
</defs>
</svg>
