<svg width="551" height="563" viewBox="0 0 551 563" fill="none" xmlns="http://www.w3.org/2000/svg">
<path d="M341.636 407.826L79.2303 375.963L64.5499 260.884C62.3344 243.653 64.0834 226.143 69.6634 209.691C75.2434 193.239 84.5069 178.278 96.7476 165.949C108.988 153.621 123.883 144.251 140.295 138.554C156.707 132.857 174.204 130.984 191.45 133.076C224.848 137.122 255.944 152.19 279.814 175.897C303.685 199.603 318.968 230.593 323.244 263.963L341.636 407.826Z" fill="white"/>
<path d="M191.56 135.908C176.129 133.894 160.443 135.264 145.594 139.922C95.6701 155.592 62.5429 206.259 69.6082 261.104L84.4261 376.568L339.464 408.733L338.969 405.022L321.265 267.317C312.495 198.479 259.134 144.458 191.56 135.908Z" fill="#840F3C"/>
<path d="M280.99 343.359C242.502 368.926 186.997 372.115 184.77 372.252C184.77 372.252 138.254 312.981 143.01 259.895C143.704 251.727 145.767 243.735 149.113 236.252C164.481 202.658 188.728 194.328 210.337 201.063C225.512 205.819 239.34 218.053 247.835 234.053C261.758 230.615 276.405 231.575 289.759 236.802C313.869 246.754 328.247 272.156 310.873 309.984C304.259 323.705 293.899 335.275 280.99 343.359Z" fill="#ED5D79"/>
<path d="M310.79 310.066C285.031 366.424 187.739 372.004 184.715 372.169C187.794 371.207 269.553 345.558 291.931 304.898C306.392 278.644 307.519 261.214 289.567 236.857C313.759 246.836 328.055 272.238 310.79 310.066Z" fill="#B70F47"/>
<path d="M247.725 234.052L235.931 259.867C235.931 259.867 229.993 223.963 210.227 200.98C225.402 205.901 239.23 217.942 247.725 234.052Z" fill="#B70F47"/>
<path d="M187.876 234.08C182.378 240.211 174.653 242.19 170.584 238.534C166.515 234.878 167.67 226.96 173.168 220.857C178.667 214.754 186.419 212.747 190.488 216.404C194.557 220.06 193.374 227.895 187.876 234.08Z" fill="#FCA9C1"/>
<path d="M395.134 196.114C435.876 250.96 444.811 333.049 445.223 336.32C445.223 336.32 361.017 409.667 282.062 406.643C269.924 406.249 257.941 403.794 246.625 399.386C195.711 379.207 181.581 343.936 189.911 311.413C195.794 288.595 212.811 267.207 236.014 253.406C229.897 233.04 230.233 211.279 236.976 191.111C249.924 154.685 286.46 131.619 343.698 154.3C364.838 162.932 381.718 178.025 395.134 196.114Z" fill="#ED5D79"/>
<path d="M343.698 154.547C429.086 188.389 444.701 331.949 445.196 336.43C443.519 331.949 399.395 212.719 337.484 182.726C297.567 163.317 271.642 162.959 236.976 191.358C249.924 154.932 286.405 131.867 343.698 154.547Z" fill="#B70F47"/>
<path d="M236.014 253.653L275.079 269.131C275.079 269.131 222.378 280.65 189.856 311.633C195.794 288.842 212.811 267.454 236.014 253.653Z" fill="#B70F47"/>
<path d="M240.495 342.204C249.979 349.874 253.498 361.201 248.412 367.496C243.327 373.792 231.505 372.665 222.048 364.994C212.591 357.324 209.045 345.998 214.131 339.702C219.217 333.407 231.12 334.534 240.495 342.204Z" fill="#FCA9C1"/>
<path d="M534.653 156.417L550.158 276.967L341.526 407.826L338.942 405.077L321.237 267.372C321.237 266.658 321.045 265.915 320.935 265.228C316.236 232.221 300.774 201.687 276.949 178.364C253.125 155.041 222.268 140.233 189.168 136.238C179.849 135.069 170.419 135.069 161.1 136.238C154.724 137.066 148.432 138.446 142.296 140.362L141.003 138.025L378.859 52.2795L382.048 51.1249C395.62 46.5276 410.052 45.043 424.275 46.7812C452.24 50.1918 478.273 62.8213 498.261 82.675C518.249 102.529 531.054 128.475 534.653 156.417Z" fill="white"/>
<path d="M534.653 156.417L550.158 276.967L341.526 407.826L338.941 405.077L321.237 267.372C321.237 266.658 321.045 265.915 320.935 265.228C367.258 233.531 451.354 169.008 502.598 87.2488C520.143 106.459 531.337 130.613 534.653 156.417Z" fill="#F4C9D5"/>
<path d="M333.553 406.836L79.2303 375.963L9.56711 473.256L0.0275879 474.465L1.34721 484.692C1.85765 488.447 2.77957 492.135 4.09635 495.689C27.7665 561.146 179.547 585.613 247.56 536.128L341.718 407.716L340.399 397.489L333.553 406.836Z" fill="#F4C9D5"/>
<path d="M340.316 397.626L320.138 425.118L246.186 525.984C174.433 578.217 9.45705 548.114 0 474.465L57.5396 394.19L77.9107 365.764L340.316 397.626Z" fill="white"/>
<path d="M340.316 397.626L320.138 425.118L254.763 417.887C254.763 417.887 194.502 447.193 128.577 435.867C100.646 430.998 75.4165 416.196 57.5396 394.19L77.9106 365.764L340.316 397.626Z" fill="#F4C9D5"/>
<path d="M244.508 330.025C246.9 376.073 221.223 425.53 220.178 427.565C220.178 427.565 145.457 437.269 102.24 406.039C95.5747 401.279 89.7648 395.423 85.0582 388.719C63.9998 358.479 69.2506 333.242 86.0754 318.121C97.9242 307.51 115.491 301.846 133.663 302.781C137.861 289.068 146.184 276.982 157.498 268.169C178.392 252.554 207.505 253.241 231.203 287.413C239.557 300.083 244.169 314.852 244.508 330.025Z" fill="#ED5D79"/>
<path d="M231.175 287.468C266.474 338.382 221.553 424.925 220.179 427.674C220.893 424.54 240.632 341.131 217.155 301.076C201.979 275.234 187.574 265.337 157.471 268.334C178.364 252.636 207.505 253.296 231.175 287.468Z" fill="#B70F47"/>
<path d="M133.636 302.836L149.801 326.149C149.801 326.149 115.876 312.898 86.0481 318.176C97.8969 307.619 115.436 301.901 133.636 302.836Z" fill="#B70F47"/>
<path d="M103.038 354.355C105.484 362.19 103.23 369.86 98.0068 371.482C92.7834 373.104 86.5978 368.073 84.2611 360.238C81.9243 352.403 84.0686 344.705 89.2644 343.083C94.4603 341.461 100.646 346.437 103.038 354.355Z" fill="#FCA9C1"/>
<path d="M292.729 168.155C290.436 168.561 288.082 168.451 285.837 167.833C283.593 167.214 281.514 166.104 279.753 164.582L214.9 121.255C213.942 120.613 213.277 119.617 213.053 118.486C212.828 117.354 213.063 116.18 213.705 115.221C214.346 114.262 215.342 113.597 216.474 113.373C217.606 113.149 218.78 113.383 219.739 114.025L284.866 157.571C285.11 157.713 285.332 157.888 285.526 158.094C288.55 161.063 295.863 159.578 302.158 154.712L302.736 154.327L393.622 104.843C399.835 100.032 406.241 95.0558 406.488 90.5747C406.371 89.1781 405.972 87.8198 405.315 86.5818C404.659 85.3438 403.758 84.2518 402.667 83.372L366.653 70.6709C366.112 70.4814 365.613 70.187 365.185 69.8047C364.757 69.4224 364.409 68.9595 364.16 68.4425C363.911 67.9256 363.766 67.3647 363.734 66.7919C363.702 66.219 363.783 65.6455 363.973 65.1039C364.162 64.5624 364.457 64.0635 364.839 63.6357C365.221 63.208 365.684 62.8597 366.201 62.6108C366.718 62.3619 367.279 62.2172 367.852 62.1851C368.425 62.153 368.998 62.234 369.54 62.4235L406.461 75.427C407.037 75.6342 407.561 75.9623 408 76.3892C413.086 81.2277 415.423 85.9837 415.175 90.9596C414.735 99.427 406.708 105.64 398.955 111.661L398.351 112.128C398.16 112.272 397.957 112.401 397.746 112.513L307.189 161.915C302.985 165.203 298.005 167.352 292.729 168.155Z" fill="#F4C9D5"/>
<path d="M217.319 117.654L210.584 65.228C209.928 60.1035 211.047 54.909 213.752 50.5079C216.458 46.1067 220.588 42.7641 225.457 41.0356L332.398 3.28992C335.576 2.16765 338.964 1.77027 342.316 2.12689C345.667 2.48352 348.895 3.58512 351.766 5.35102C354.636 7.11691 357.075 9.50237 358.904 12.3328C360.733 15.1632 361.906 18.3668 362.337 21.7092L368.082 66.5201" stroke="#840F3C" stroke-width="4" stroke-linecap="round" stroke-linejoin="round"/>
</svg>
