<svg width="98" height="98" viewBox="0 0 98 98" fill="none" xmlns="http://www.w3.org/2000/svg">
<rect x="1.5" y="14.1188" width="81.7587" height="81.7587" rx="8.14637" fill="white"/>
<rect x="1.5" y="14.1188" width="81.7587" height="81.7587" rx="8.14637" stroke="#FFF7F7" stroke-width="3"/>
<path d="M74.1529 80.3877C73.8461 80.5251 73.5057 80.5712 73.173 80.5204C72.8403 80.4695 72.5297 80.3239 72.2789 80.1013L62.6583 71.7563L35.0127 73.4185L19.1619 74.3646C18.2507 74.4192 17.3548 74.1128 16.6713 73.5128C15.9877 72.9127 15.5724 72.0681 15.5167 71.1645L13.7795 42.6129C13.7636 42.3607 13.7789 42.1076 13.8251 41.8591L29.9495 38.2181L67.9951 35.9565L69.1582 35.8887C69.6104 35.8586 70.0641 35.9179 70.493 36.0631C70.9218 36.2084 71.3173 36.4366 71.6565 36.7347C71.9956 37.0328 72.2717 37.3947 72.4686 37.7995C72.6655 38.2042 72.7793 38.6438 72.8035 39.0925L75.2096 78.6916C75.232 79.048 75.1424 79.4024 74.9531 79.7062C74.7639 80.01 74.4843 80.2481 74.1529 80.3877Z" fill="white"/>
<path d="M71.1918 65.2469L35.0126 73.4185L19.1619 74.3646C18.2507 74.4192 17.3548 74.1129 16.6713 73.5128C15.9877 72.9127 15.5724 72.0681 15.5167 71.1645L13.7795 42.6129C13.7636 42.3608 13.7789 42.1076 13.8251 41.8591L29.9495 38.2181L67.995 35.9566L73.7842 61.18C73.9807 62.0599 73.8185 62.9812 73.3329 63.743C72.8473 64.5048 72.0777 65.0454 71.1918 65.2469Z" fill="#F4C9D5"/>
<path d="M64.4064 30.3065L70.8037 58.1985C71.0059 59.0812 70.8465 60.0074 70.3604 60.7735C69.8743 61.5396 69.1013 62.083 68.2113 62.2843L25.7185 71.8656L18.8461 82.5513C18.6585 82.8443 18.3877 83.0756 18.0676 83.2162C17.7476 83.3567 17.3928 83.4 17.0479 83.3407C16.7031 83.2815 16.3837 83.1222 16.13 82.8831C15.8764 82.644 15.6998 82.3357 15.6227 81.9972L6.74707 43.314C6.5449 42.4304 6.70478 41.5033 7.19159 40.7364C7.67839 39.9696 8.4523 39.4258 9.34325 39.2244L60.2784 27.7284C61.1705 27.528 62.1065 27.6869 62.8805 28.1703C63.6545 28.6538 64.2034 29.4221 64.4064 30.3065Z" fill="#D23C73"/>
<path d="M52.5287 47.381C53.2889 56.9208 40.4373 64.9529 40.042 65.2017C40.042 65.2017 25.689 59.171 24.9287 49.4955C24.484 43.804 27.1638 40.864 30.6304 40.1592C33.0555 39.6692 35.8608 40.2836 38.2327 41.8252C39.8771 40.3233 41.9496 39.3622 44.1662 39.0737C48.1802 38.6214 52.046 40.9809 52.5287 47.381Z" fill="white"/>
<path d="M52.5287 47.381C53.2889 56.9208 40.4373 64.9529 40.042 65.2017C40.3841 64.8247 49.5942 55.2623 49.5828 48.0896C49.5828 43.461 48.4121 41.0223 44.132 39.0737C48.1802 38.6214 52.046 40.9809 52.5287 47.381Z" fill="white"/>
<path d="M38.2214 41.8327L38.5597 46.1975C38.5597 46.1975 35.0437 41.7913 30.6191 40.1668C33.0443 39.6768 35.8495 40.2911 38.2214 41.8327Z" fill="white"/>
<path d="M29.7898 46.45C29.4743 47.7918 28.4974 48.7115 27.5965 48.5042C26.6956 48.2969 26.2243 47.0455 26.536 45.7074C26.8477 44.3694 27.8284 43.4459 28.7254 43.6532C29.6225 43.8605 30.1014 45.1119 29.7898 46.45Z" fill="#FCA9C1"/>
<path d="M60.9593 81.9595C59.3362 85.0879 53.7561 85.1445 53.5813 85.1482C53.5813 85.1482 50.2591 80.5197 51.9088 77.3423C52.8781 75.4765 54.2845 75.0807 55.5046 75.5067C56.4207 75.8769 57.1565 76.5849 57.5573 77.4817C58.3634 77.3251 59.1986 77.4199 59.9482 77.7531C61.2976 78.3826 62.0312 79.8601 60.9593 81.9595Z" fill="#FCBED2"/>
<path d="M31.1919 26.085C32.0661 28.241 29.6904 31.0302 29.6144 31.1169C29.6144 31.1169 25.8475 30.7701 24.958 28.5802C24.4335 27.295 24.8364 26.4205 25.5852 26.0059C26.1674 25.7123 26.8414 25.6529 27.4668 25.8401C27.7351 25.3734 28.1428 25.0007 28.6337 24.7734C29.5346 24.3738 30.6027 24.6414 31.1919 26.085Z" fill="#FCBED2"/>
<circle cx="81.7586" cy="15.6188" r="13.9572" fill="#D23C73" stroke="white" stroke-width="3.32315"/>
<path d="M83.5068 7.84444V23.2955H81.0359V12.4193C80.5612 12.7718 80.0936 13.02 79.6332 13.1638C79.1729 13.3077 78.77 13.3796 78.4248 13.3796H78.3816V10.9088H78.414C78.824 10.9088 79.1837 10.7793 79.493 10.5203C79.8023 10.2542 80.0648 9.94486 80.2806 9.59239C80.4964 9.23273 80.6655 8.89825 80.7877 8.58894C80.9172 8.27244 80.9999 8.04945 81.0359 7.91997C81.0503 7.86962 81.0575 7.84444 81.0575 7.84444H83.5068Z" fill="white"/>
</svg>
