<svg width="19" height="17" viewBox="0 0 19 17" fill="none" xmlns="http://www.w3.org/2000/svg">
<path d="M2.47221 6.91249C7.8108 6.10413 11.1588 6.10413 16.4974 6.91249L16.5211 6.91609C17.0823 7.00097 17.6684 7.09506 18.2793 7.19836C18.3572 7.21393 18.4373 7.21351 18.515 7.19713C18.5927 7.18074 18.6663 7.14872 18.7315 7.10296C18.7968 7.05721 18.8523 6.99864 18.8948 6.93075C18.9373 6.86286 18.9659 6.78701 18.9789 6.70771C18.9919 6.62841 18.9891 6.54727 18.9706 6.46909C18.9521 6.39092 18.9183 6.31731 18.8712 6.25262C18.824 6.18793 18.7646 6.13348 18.6963 6.0925C18.6281 6.05152 18.5524 6.02484 18.4737 6.01405C18.0122 5.93557 17.564 5.8623 17.1293 5.79424C17.1063 5.70333 17.0757 5.61454 17.038 5.52879L15.0819 1.0702C14.9422 0.751632 14.7142 0.480958 14.4257 0.290999C14.1372 0.101041 13.8005 -4.42293e-05 13.4564 1.45176e-08H5.51318C5.16944 8.47425e-05 4.83308 0.1011 4.54482 0.290823C4.25656 0.480545 4.02875 0.750842 3.88896 1.069L1.93278 5.52999C1.89327 5.61327 1.85809 5.70255 1.82727 5.79784C1.39731 5.86511 0.95351 5.93717 0.495883 6.01405C0.41905 6.02698 0.345484 6.05512 0.279385 6.09686C0.213286 6.1386 0.155948 6.19312 0.110647 6.2573C0.0191552 6.38694 -0.0177591 6.54809 0.00802425 6.7053C0.0338076 6.8625 0.120177 7.0029 0.248131 7.09559C0.376085 7.18828 0.535144 7.22568 0.690315 7.19956C1.28348 7.09924 1.87747 7.00275 2.47221 6.91249ZM1.18588 12.6118C1.18588 11.8154 1.49815 11.0517 2.05399 10.4885C2.60983 9.92539 3.36371 9.60902 4.14978 9.60902C4.93586 9.60902 5.68974 9.92539 6.24558 10.4885C6.80142 11.0517 7.11369 11.8154 7.11369 12.6118C7.11369 13.4082 6.80142 14.172 6.24558 14.7352C5.68974 15.2983 4.93586 15.6147 4.14978 15.6147C3.36371 15.6147 2.60983 15.2983 2.05399 14.7352C1.49815 14.172 1.18588 13.4082 1.18588 12.6118ZM4.14978 8.40789C3.35446 8.4081 2.57594 8.63987 1.90693 9.07561C1.23793 9.51135 0.706618 10.1327 0.376267 10.8657C0.0459152 11.5986 -0.0695594 12.4124 0.0435922 13.2099C0.156744 14.0075 0.493754 14.7553 1.0145 15.3644C1.53524 15.9734 2.21777 16.418 2.98083 16.6452C3.74389 16.8724 4.55532 16.8727 5.31851 16.6459C6.0817 16.4192 6.76449 15.975 7.28559 15.3663C7.80669 14.7575 8.14414 14.0099 8.25776 13.2124H10.7119C10.8617 14.2647 11.3995 15.2204 12.2168 15.8871C13.0341 16.5539 14.0704 16.8823 15.1171 16.8062C16.1638 16.7301 17.1432 16.2551 17.8582 15.4769C18.5731 14.6987 18.9706 13.675 18.9706 12.6118C18.9706 11.5487 18.5731 10.525 17.8582 9.74677C17.1432 8.96855 16.1638 8.4936 15.1171 8.41748C14.0704 8.34137 13.0341 8.66975 12.2168 9.33654C11.3995 10.0033 10.8617 10.959 10.7119 12.0113H8.25776C8.11519 11.0106 7.6214 10.0954 6.86691 9.4336C6.11242 8.77179 5.14777 8.40763 4.14978 8.40789ZM11.8559 12.6118C11.8559 11.8154 12.1682 11.0517 12.724 10.4885C13.2799 9.92539 14.0338 9.60902 14.8198 9.60902C15.6059 9.60902 16.3598 9.92539 16.9156 10.4885C17.4715 11.0517 17.7837 11.8154 17.7837 12.6118C17.7837 13.4082 17.4715 14.172 16.9156 14.7352C16.3598 15.2983 15.6059 15.6147 14.8198 15.6147C14.0338 15.6147 13.2799 15.2983 12.724 14.7352C12.1682 14.172 11.8559 13.4082 11.8559 12.6118Z" fill="white"/>
</svg>
