<svg width="57" height="57" viewBox="0 0 57 57" fill="none" xmlns="http://www.w3.org/2000/svg">
<rect width="57" height="57" rx="10" fill="#D23C73"/>
<path d="M51.278 46.8322C51.0569 46.9321 50.8115 46.9656 50.5718 46.9287C50.332 46.8917 50.1081 46.7859 49.9274 46.6241L42.9939 40.559L23.07 41.767L11.6466 42.4546C10.9899 42.4944 10.3442 42.2717 9.85162 41.8356C9.35899 41.3994 9.05969 40.7856 9.0195 40.1289L7.76758 19.3777C7.7561 19.1944 7.76714 19.0104 7.80045 18.8298L19.4211 16.1835L46.8401 14.5398L47.6783 14.4905C48.0042 14.4687 48.3312 14.5118 48.6403 14.6173C48.9494 14.7229 49.2344 14.8888 49.4788 15.1054C49.7232 15.3221 49.9222 15.5851 50.0641 15.8793C50.206 16.1735 50.288 16.4929 50.3055 16.8191L52.0395 45.5995C52.0556 45.8585 51.9911 46.1161 51.8547 46.3369C51.7183 46.5577 51.5168 46.7308 51.278 46.8322Z" fill="white"/>
<path d="M49.1439 35.828L23.07 41.767L11.6466 42.4546C10.9899 42.4944 10.3442 42.2717 9.85162 41.8356C9.35899 41.3994 9.05969 40.7856 9.0195 40.1289L7.76758 19.3777C7.7561 19.1944 7.76714 19.0104 7.80045 18.8298L19.4211 16.1835L46.8401 14.5398L51.0122 32.8721C51.1539 33.5116 51.037 34.1812 50.687 34.7349C50.337 35.2886 49.7824 35.6815 49.1439 35.828Z" fill="#F4C9D5"/>
<path d="M44.2542 10.4334L48.8646 30.7052C49.0104 31.3467 48.8954 32.0199 48.5451 32.5767C48.1948 33.1335 47.6377 33.5285 46.9964 33.6748L16.3723 40.6384L11.4194 48.4047C11.2842 48.6176 11.089 48.7858 10.8584 48.8879C10.6277 48.99 10.372 49.0216 10.1235 48.9785C9.87496 48.9354 9.64477 48.8197 9.46196 48.6459C9.27915 48.4721 9.15193 48.248 9.09634 48.002L2.69977 19.8872C2.55406 19.245 2.66929 18.5712 3.02013 18.0138C3.37096 17.4565 3.9287 17.0613 4.5708 16.9149L41.2792 8.55967C41.9221 8.41398 42.5966 8.5295 43.1545 8.88085C43.7123 9.2322 44.1078 9.79062 44.2542 10.4334Z" fill="white"/>
<path d="M35.6934 22.8431C36.2413 29.7766 26.9793 35.6143 26.6944 35.7951C26.6944 35.7951 16.3503 31.412 15.8024 24.3799C15.4819 20.2433 17.4132 18.1066 19.9116 17.5943C21.6593 17.2382 23.681 17.6847 25.3904 18.8051C26.5755 17.7135 28.0692 17.0151 29.6667 16.8054C32.5595 16.4766 35.3455 18.1915 35.6934 22.8431Z" fill="#ED5D79"/>
<path d="M35.6934 22.8431C36.2413 29.7766 26.9792 35.6143 26.6943 35.7951C26.9409 35.5211 33.5785 28.5712 33.5703 23.3581C33.5703 19.994 32.7266 18.2216 29.642 16.8054C32.5595 16.4766 35.3455 18.1915 35.6934 22.8431Z" fill="#B70F47"/>
<path d="M25.3822 18.8106L25.626 21.9829C25.626 21.9829 23.092 18.7805 19.9033 17.5998C21.6511 17.2437 23.6728 17.6902 25.3822 18.8106Z" fill="#B70F47"/>
<path d="M19.3063 22.1664C19.0789 23.1416 18.3749 23.8101 17.7256 23.6594C17.0764 23.5087 16.7367 22.5992 16.9613 21.6267C17.1859 20.6542 17.8927 19.9831 18.5392 20.1338C19.1857 20.2844 19.5309 21.1939 19.3063 22.1664Z" fill="#FCA9C1"/>
<path d="M41.7693 47.9746C40.5996 50.2483 36.5781 50.2894 36.4521 50.2922C36.4521 50.2922 34.0578 46.9281 35.2467 44.6188C35.9453 43.2628 36.9589 42.9751 37.8382 43.2847C38.4984 43.5538 39.0287 44.0683 39.3175 44.7202C39.8985 44.6063 40.5004 44.6752 41.0406 44.9174C42.0131 45.3749 42.5418 46.4487 41.7693 47.9746Z" fill="#FCBED2"/>
<path d="M20.3169 7.36528C20.9469 8.93223 19.2348 10.9594 19.18 11.0224C19.18 11.0224 16.4652 10.7704 15.8242 9.17878C15.4462 8.24463 15.7365 7.60909 16.2762 7.30775C16.6958 7.0944 17.1816 7.05122 17.6322 7.18721C17.8256 6.84803 18.1195 6.57717 18.4732 6.41195C19.1225 6.12157 19.8923 6.31607 20.3169 7.36528Z" fill="#FCBED2"/>
</svg>
