<svg width="50" height="15" viewBox="0 0 50 15" fill="none" xmlns="http://www.w3.org/2000/svg">
<path d="M44.0783 0H34.6199C35.1709 3.1222 38.2013 6.06075 41.5071 6.06075H49.0372C49.129 5.78527 49.129 5.32611 49.129 5.05062C49.129 2.29574 46.8332 0 44.0783 0Z" fill="url(#paint0_linear_223_178)"/>
<path d="M35.4458 6.61176V14.2336H40.0373V10.1931H44.0778C46.2817 10.1931 48.2101 8.63201 48.853 6.61176H35.4458Z" fill="#4FAD50"/>
<path d="M19.2842 0V14.1418H23.3247C23.3247 14.1418 24.3348 14.1418 24.8858 13.1316C27.6407 7.71368 28.4672 6.06075 28.4672 6.06075H29.0181V14.1418H33.6096V0H29.5691C29.5691 0 28.559 0.0918351 28.008 1.01013C25.7123 5.69344 24.4267 8.081 24.4267 8.081H23.8757V0H19.2842Z" fill="#4FAD50"/>
<path d="M0 14.2335V0.0917969H4.59148C4.59148 0.0917969 5.8771 0.091794 6.61174 2.11204C8.44833 7.43816 8.632 8.1728 8.632 8.1728C8.632 8.1728 8.9993 6.88718 10.6522 2.11204C11.3869 0.091794 12.6725 0.0917969 12.6725 0.0917969H17.264V14.2335H12.6725V6.6117H12.1215L9.55029 14.2335H7.53003L4.95882 6.6117H4.40783V14.2335H0Z" fill="#4FAD50"/>
<defs>
<linearGradient id="paint0_linear_223_178" x1="34.6036" y1="3.07381" x2="49.0965" y2="3.07381" gradientUnits="userSpaceOnUse">
<stop stop-color="#27B1E6"/>
<stop offset="1" stop-color="#148ACA"/>
</linearGradient>
</defs>
</svg>
