<svg width="76" height="67" viewBox="0 0 76 67" fill="none" xmlns="http://www.w3.org/2000/svg">
<path d="M73.861 61.565C73.5253 61.7167 73.1528 61.7676 72.7887 61.7114C72.4246 61.6553 72.0846 61.4946 71.8102 61.2489L61.2814 52.0388L31.0261 53.8733L13.6791 54.9174C12.6819 54.9777 11.7014 54.6396 10.9534 53.9773C10.2053 53.3151 9.75079 52.3829 9.68975 51.3857L7.78865 19.8741C7.77122 19.5958 7.78798 19.3163 7.83857 19.0421L25.4851 15.0236L67.1219 12.5276L68.3949 12.4527C68.8897 12.4195 69.3863 12.485 69.8556 12.6453C70.325 12.8055 70.7578 13.0575 71.129 13.3865C71.5001 13.7155 71.8022 14.1149 72.0177 14.5616C72.2332 15.0083 72.3578 15.4934 72.3842 15.9887L75.0175 59.6931C75.042 60.0864 74.9439 60.4776 74.7368 60.8129C74.5297 61.1481 74.2237 61.4109 73.861 61.565Z" fill="white"/>
<path d="M70.6204 44.8546L31.0261 53.8733L13.6791 54.9175C12.6819 54.9778 11.7014 54.6396 10.9534 53.9774C10.2053 53.3151 9.75079 52.3829 9.68975 51.3857L7.78865 19.8741C7.77122 19.5958 7.78798 19.3164 7.83857 19.0421L25.4851 15.0236L67.1219 12.5276L73.4575 40.366C73.6726 41.3371 73.4951 42.3539 72.9637 43.1947C72.4322 44.0356 71.5899 44.6322 70.6204 44.8546Z" fill="#F4C9D5"/>
<path d="M63.1957 6.29188L70.1969 37.0755C70.4182 38.0496 70.2437 39.0718 69.7117 39.9174C69.1797 40.7629 68.3338 41.3627 67.3598 41.5848L20.8558 52.1594L13.3346 63.9529C13.1294 64.2763 12.8329 64.5316 12.4827 64.6867C12.1325 64.8418 11.7442 64.8896 11.3668 64.8242C10.9894 64.7588 10.6398 64.583 10.3622 64.3191C10.0846 64.0552 9.8914 63.715 9.80699 63.3413L0.0935173 20.6478C-0.127741 19.6726 0.0472376 18.6494 0.579995 17.803C1.11275 16.9567 1.95971 16.3565 2.93477 16.1343L58.678 3.44648C59.6544 3.22525 60.6786 3.40068 61.5257 3.93421C62.3728 4.46774 62.9735 5.31574 63.1957 6.29188Z" fill="white"/>
<path d="M50.1958 25.1364C51.0278 35.6652 36.963 44.5301 36.5303 44.8046C36.5303 44.8046 20.8224 38.1487 19.9904 27.4701C19.5037 21.1886 22.4365 17.9439 26.2303 17.166C28.8844 16.6252 31.9544 17.3032 34.5502 19.0047C36.3499 17.347 38.618 16.2863 41.0439 15.9679C45.4368 15.4687 49.6674 18.0728 50.1958 25.1364Z" fill="#ED5D79"/>
<path d="M50.1957 25.1364C51.0277 35.6652 36.9629 44.5301 36.5303 44.8046C36.9047 44.3886 46.9842 33.8349 46.9717 25.9185C46.9717 20.8101 45.6905 18.1186 41.0064 15.9679C45.4367 15.4687 49.6674 18.0728 50.1957 25.1364Z" fill="#B70F47"/>
<path d="M34.5377 19.013L34.9079 23.8302C34.9079 23.8302 31.0599 18.9672 26.2178 17.1743C28.8718 16.6335 31.9419 17.3116 34.5377 19.013Z" fill="#B70F47"/>
<path d="M25.3106 24.1089C24.9654 25.5899 23.8963 26.6049 22.9104 26.3761C21.9245 26.1473 21.4086 24.7662 21.7497 23.2894C22.0909 21.8126 23.1641 20.7934 24.1459 21.0222C25.1276 21.251 25.6518 22.6321 25.3106 24.1089Z" fill="#FCA9C1"/>
<path d="M59.4217 63.2998C57.6454 66.7525 51.5386 66.8149 51.3472 66.8191C51.3472 66.8191 47.7114 61.7107 49.5168 58.2038C50.5776 56.1447 52.1168 55.7079 53.4522 56.1779C54.4547 56.5866 55.2599 57.3679 55.6985 58.3577C56.5807 58.1849 57.4948 58.2895 58.3151 58.6573C59.7919 59.352 60.5948 60.9827 59.4217 63.2998Z" fill="#FCBED2"/>
<path d="M26.8452 1.63275C27.802 4.01224 25.2021 7.0906 25.1189 7.18628C25.1189 7.18628 20.9964 6.80356 20.0229 4.38664C19.4489 2.9681 19.8898 2.00299 20.7093 1.54539C21.3465 1.22141 22.0842 1.15585 22.7685 1.36236C23.0622 0.847289 23.5084 0.435975 24.0456 0.185093C25.0315 -0.255861 26.2005 0.0394947 26.8452 1.63275Z" fill="#FCBED2"/>
</svg>
